<?xml version="1.0" encoding="UTF-8"?>
<!DOCTYPE svg PUBLIC "-//W3C//DTD SVG 1.1//EN" "http://www.w3.org/Graphics/SVG/1.1/DTD/svg11.dtd">
<svg xmlns="http://www.w3.org/2000/svg" version="1.1" width="1024px" height="1024px" style="shape-rendering:geometricPrecision; text-rendering:geometricPrecision; image-rendering:optimizeQuality; fill-rule:evenodd; clip-rule:evenodd" xmlns:xlink="http://www.w3.org/1999/xlink">
<g><path style="opacity:1" fill="#fefefe" d="M -0.5,-0.5 C 340.833,-0.5 682.167,-0.5 1023.5,-0.5C 1023.5,340.833 1023.5,682.167 1023.5,1023.5C 682.167,1023.5 340.833,1023.5 -0.5,1023.5C -0.5,682.167 -0.5,340.833 -0.5,-0.5 Z"/></g>
<g><path style="opacity:1" fill="#282624" d="M 483.5,155.5 C 517.057,153.224 548.391,160.391 577.5,177C 592.351,184.848 602.518,196.681 608,212.5C 653.309,240.759 666.976,280.092 649,330.5C 642.24,347.194 631.74,361.027 617.5,372C 614.654,374.173 611.488,375.673 608,376.5C 605.077,376.205 602.743,374.871 601,372.5C 599.514,368.224 598.181,363.891 597,359.5C 586.053,367.114 573.886,371.114 560.5,371.5C 560.964,378.927 563.964,385.094 569.5,390C 592.736,397.865 611.569,411.698 626,431.5C 641.598,454.372 652.598,479.372 659,506.5C 664.885,533.245 669.218,560.245 672,587.5C 678.827,669.045 683.66,750.711 686.5,832.5C 686.594,838.246 686.094,843.913 685,849.5C 680.351,856.499 673.851,858.999 665.5,857C 645.598,851.219 627.931,841.553 612.5,828C 599.965,817.133 588.465,805.299 578,792.5C 560.333,768.833 542.667,745.167 525,721.5C 516.47,712.636 507.637,704.136 498.5,696C 492.335,691.75 486.002,687.75 479.5,684C 393.6,663.419 333.433,612.586 299,531.5C 269.399,444.449 277.065,360.783 322,280.5C 342.014,244.478 368.514,213.978 401.5,189C 426.044,170.891 453.377,159.725 483.5,155.5 Z"/></g>
<g><path style="opacity:1" fill="#fcfcfc" d="M 535.5,411.5 C 522.396,437.096 519.896,463.763 528,491.5C 530.941,500.323 534.274,508.99 538,517.5C 551.236,544.309 565.236,570.642 580,596.5C 595.024,625.072 606.19,655.072 613.5,686.5C 579.199,648.027 545.032,609.36 511,570.5C 496.908,552.99 485.908,533.656 478,512.5C 466.994,470.841 480.161,439.341 517.5,418C 523.208,414.977 529.208,412.811 535.5,411.5 Z"/></g>
<g><path style="opacity:1" fill="#fcfcfc" d="M 560.5,410.5 C 580.14,414.969 595.974,425.302 608,441.5C 624.012,464.17 635.012,489.17 641,516.5C 645.959,539.963 649.626,563.629 652,587.5C 656.899,639.751 660.232,692.084 662,744.5C 652.93,733.607 644.096,722.607 635.5,711.5C 632.75,682.499 625.917,654.499 615,627.5C 607.486,609.471 599.153,591.804 590,574.5C 577.824,552.817 566.157,530.817 555,508.5C 544.488,487.61 540.821,465.61 544,442.5C 547.15,430.531 552.65,419.864 560.5,410.5 Z"/></g>
<g><path style="opacity:1" fill="#390c13" d="M 559.5,409.5 C 551.339,409.015 543.339,409.682 535.5,411.5C 535.62,410.414 536.287,409.747 537.5,409.5C 541.5,408.833 545.5,408.167 549.5,407.5C 553.586,407.964 556.92,408.631 559.5,409.5 Z"/></g>
<g><path style="opacity:1" fill="#fdfdfd" d="M 538.5,343.5 C 538.881,359.243 540.881,374.91 544.5,390.5C 510.246,393.928 484.079,410.262 466,439.5C 452.231,465.126 449.897,491.792 459,519.5C 465.648,537.799 474.648,554.799 486,570.5C 494.953,582.455 504.287,594.122 514,605.5C 538.5,632.667 563,659.833 587.5,687C 553.629,686.91 520.963,680.577 489.5,668C 453.893,651.398 425.393,626.564 404,593.5C 367.598,530.988 375.098,474.488 426.5,424C 441.121,411.691 456.454,400.358 472.5,390C 491.846,378.997 510.513,366.997 528.5,354C 532.037,350.631 535.371,347.131 538.5,343.5 Z"/></g>
<g><path style="opacity:1" fill="#f9c63d" d="M 564.5,310.5 C 577.399,315.568 586.066,324.735 590.5,338C 587.669,342.43 583.669,345.43 578.5,347C 572.362,349.285 566.028,350.452 559.5,350.5C 559.252,336.876 560.919,323.542 564.5,310.5 Z"/></g>
<g><path style="opacity:1" fill="#e8493c" d="M 602.5,235.5 C 626.846,250.187 638.012,271.854 636,300.5C 633.493,318.201 626.993,334.201 616.5,348.5C 612.432,336.363 607.265,324.696 601,313.5C 593.145,303.658 583.645,295.825 572.5,290C 571.978,289.439 571.645,288.772 571.5,288C 580.198,269.422 590.531,251.922 602.5,235.5 Z"/></g>
<g><path style="opacity:1" fill="#fdfdfd" d="M 482.5,177.5 C 515.53,174.535 545.864,182.035 573.5,200C 575.705,202.54 578.205,204.707 581,206.5C 585.135,211.436 586.468,217.103 585,223.5C 575.832,237.165 567.165,251.165 559,265.5C 553.826,276.849 549.493,288.516 546,300.5C 537.833,317.009 526.333,330.843 511.5,342C 486.998,357.083 462.665,372.417 438.5,388C 419.415,401.084 402.915,416.918 389,435.5C 356.024,485.114 352.691,536.781 379,590.5C 386.993,604.821 396.16,618.321 406.5,631C 356.012,598.772 323.512,553.272 309,494.5C 288.895,388.822 317.062,298.322 393.5,223C 418.816,199.342 448.483,184.175 482.5,177.5 Z"/></g>
<g><path style="opacity:1" fill="#282724" d="M 499.5,226.5 C 518.641,225.477 528.141,234.477 528,253.5C 524.174,267.503 515.007,273.669 500.5,272C 487.22,267.613 481.387,258.447 483,244.5C 485.565,235.77 491.065,229.77 499.5,226.5 Z"/></g>
<g><path style="opacity:1" fill="#06a568" d="M 559.5,409.5 C 559.5,410.167 559.833,410.5 560.5,410.5C 552.65,419.864 547.15,430.531 544,442.5C 540.821,465.61 544.488,487.61 555,508.5C 566.157,530.817 577.824,552.817 590,574.5C 599.153,591.804 607.486,609.471 615,627.5C 625.917,654.499 632.75,682.499 635.5,711.5C 627.958,703.467 620.625,695.134 613.5,686.5C 606.19,655.072 595.024,625.072 580,596.5C 565.236,570.642 551.236,544.309 538,517.5C 534.274,508.99 530.941,500.323 528,491.5C 519.896,463.763 522.396,437.096 535.5,411.5C 543.339,409.682 551.339,409.015 559.5,409.5 Z"/></g>
<g><path style="opacity:1" fill="#238ebe" d="M 533.5,702.5 C 533.917,701.876 534.584,701.543 535.5,701.5C 558.858,705.655 582.358,707.989 606,708.5C 624.584,731.755 643.917,754.421 664,776.5C 665.715,797.312 666.548,817.979 666.5,838.5C 643.568,827.277 623.401,812.277 606,793.5C 587.212,771.913 569.879,749.247 554,725.5C 547.672,717.341 540.839,709.675 533.5,702.5 Z"/></g>
</svg>
